<svg preserveAspectRatio="none" width="100%" height="100%" overflow="visible" style="display: block;" viewBox="0 0 132.688 11.5289" fill="none" xmlns="http://www.w3.org/2000/svg">
<path id="Vector 4" d="M0.679506 2.76951C1.36783 2.44991 2.36028 2.29876 3.13717 2.26137C3.37719 2.25 3.32654 2.51166 3.49658 2.51385C3.831 2.51738 4.08837 2.3252 4.41973 2.3492C4.53084 2.35802 4.50442 2.7569 4.61867 2.75782C5.24188 2.76091 5.76641 2.52022 6.37742 2.44181C9.38153 2.0597 12.2831 1.49778 15.3287 1.06622C15.4752 1.04553 15.6273 1.03028 15.7831 1.01843C16.7222 0.942706 17.8015 1.00272 18.6918 0.760998C18.814 0.727432 18.6982 0.407869 18.7185 0.377729C19.0401 -0.0839579 18.9992 0.595891 19.2502 0.655863C20.2504 0.892843 21.2963 0.836006 22.1922 0.647234C22.5733 0.56622 22.1454 -0.065753 22.5565 0.278064C22.5848 0.301297 22.5105 0.658931 22.6174 0.689763C22.8619 0.758652 23.3092 0.669393 23.4946 0.687238C23.851 0.7233 23.9101 0.71672 24.2447 0.703742C24.7005 0.689319 25.2553 0.839106 25.7363 0.73868C25.8402 0.716147 25.6858 0.361359 25.8509 0.29285C26.0176 0.224305 26.4553 0.237013 26.6088 0.316131C26.7585 0.395383 26.7075 0.681409 26.736 0.74537C26.9725 1.28532 27.4505 0.506104 27.5151 0.484897C28.7003 0.119618 29.7265 0.517526 30.8417 0.477727C30.9708 0.47299 31.1025 0.464873 31.2362 0.454476C31.977 0.396823 32.7378 0.279892 33.4298 0.285575C34.4018 0.29527 35.2235 0.485289 36.1621 0.4496C36.2606 0.446287 36.1442 0.0219955 36.2649 0.0171115C37.5511 -0.0341797 38.83 0.0196218 40.1018 0.319235C40.2293 0.34967 40.0608 0.720641 40.1879 0.773338C40.9681 1.08743 42.1901 1.84049 42.6799 0.225556C43.2086 0.297165 43.8502 0.373731 44.3182 0.709558C44.6192 0.925717 44.3156 1.32611 44.6929 1.15995C44.7784 1.12297 44.675 0.765361 44.8026 0.736801C45.3395 0.616884 45.9199 0.744325 46.4518 0.571965C46.5603 0.536077 46.5377 0.216917 46.5694 0.160213C46.8356 -0.298832 47.2437 0.478499 47.336 0.536417C48.0299 0.968336 48.5535 0.816875 49.2093 0.842974C49.3607 0.849205 49.1918 0.416995 49.3384 0.407641C50.1033 0.364987 50.8929 0.42191 51.6324 0.631173C51.7979 0.678781 51.6352 1.0392 51.7137 1.08059C52.0579 1.25863 52.1528 0.572371 52.4854 0.729984C52.555 0.762316 52.5071 1.07323 52.519 1.10784C52.7037 1.65094 52.9009 0.893573 52.9538 0.878145C53.5746 0.676264 53.9781 1.39357 54.5519 1.38448C54.5833 1.38401 54.6152 1.38149 54.6477 1.37666C54.7246 1.36447 54.5626 0.965011 54.7784 0.954912C56.2127 0.88536 57.7245 1.05386 59.1205 1.44042C59.3385 1.50005 59.1661 1.78836 59.1781 1.82558C59.3745 2.40761 59.559 1.65074 59.6323 1.62572C60.2052 1.44808 60.6995 2.11959 61.1341 1.23218C63.5078 1.69126 65.926 1.36349 68.2166 2.39536C68.2455 2.40752 68.1576 2.77804 68.2152 2.80069C68.9199 3.07908 68.8319 2.48255 69.3787 1.81532C69.5189 1.64806 69.8004 2.54537 69.8255 2.61167C69.9194 2.85592 69.7423 3.40195 69.777 3.4509C70.0628 3.8368 70.1988 1.98591 70.6418 2.03078C70.6552 2.03528 70.5623 2.36894 70.5958 2.40653C70.6997 2.52439 70.8271 2.40121 70.926 2.52973C71.1523 2.82695 71.1545 3.73343 71.5988 3.25369C71.6563 3.19149 71.6898 2.13647 72.0806 2.22924C72.2396 2.26724 72.9288 2.32638 73.1203 2.41733C73.3069 2.50736 73.1346 2.82885 73.1469 2.84504C73.6141 3.35054 73.3944 3.51223 73.5801 4.20241C73.7636 4.89009 73.8769 3.31522 74.0042 3.1531C74.1296 2.9912 74.4697 3.40505 74.5486 3.5444C74.6269 3.68364 74.4835 3.88312 74.558 3.96562C75.0478 4.5055 74.8921 3.21808 75.1076 2.99264C75.6196 2.45943 75.803 3.66245 76.1803 3.82773C76.281 3.87225 76.2305 3.59685 76.3269 3.58447C76.7226 3.5411 76.8845 3.9312 77.367 3.66028C77.4426 3.61568 77.8879 2.96797 78.04 3.5114C78.0606 3.58957 77.9307 3.86533 78.0789 3.95268C78.3043 4.08414 78.7186 4.20991 78.9963 4.15397C79.1941 4.11139 79.0544 3.6039 79.2643 3.78727C79.3624 3.86994 79.117 4.11613 79.3069 4.24865C79.4933 4.38031 79.9921 4.44835 80.1916 4.47266C80.3863 4.49564 80.3416 4.11853 80.3615 4.097C80.4577 3.98629 80.8049 3.89208 80.8896 3.87534C80.9009 3.87336 80.9088 3.87264 80.9123 3.87332C82.515 4.11765 83.9317 4.94584 85.5509 4.97526C85.6778 4.97798 85.6496 4.58572 85.6695 4.58221C86.1222 4.48468 85.6375 5.44704 85.8879 5.82837C85.9546 5.05029 86.1135 5.21573 86.4253 5.17375C86.5774 5.15315 86.5404 4.84293 86.558 4.81423C86.8379 4.39088 86.9035 4.99834 86.9261 5.12393C87.0084 5.58572 87.2336 5.08571 87.2907 5.39464C87.3471 5.7012 87.0613 6.10354 87.3526 6.13898C87.4718 5.87395 87.3611 5.12177 87.5952 5.03541C88.4886 4.70994 89.9537 5.49304 90.613 5.64574C91.2711 5.79817 91.4917 5.77724 91.8673 5.93202C92.5389 6.21088 92.3654 5.63994 92.8304 5.45548C93.3015 5.27196 92.9035 6.56036 92.9261 6.85263C92.948 7.14467 93.0581 6.86281 93.1109 7.02914C93.1644 7.19552 92.9735 7.36503 93.1431 7.44868C93.2356 7.49424 93.445 7.38608 93.6361 7.23211C93.7948 7.10336 93.9374 6.94227 93.9856 6.81156C94.2102 6.20323 94.0807 5.51231 94.5258 5.81246C94.5512 5.83014 94.4125 6.16387 94.5123 6.21398C95.3042 6.60026 96.1642 6.74349 96.9596 7.09529C97.069 7.14421 96.9132 7.51572 96.9764 7.54856C97.6351 7.89103 97.4783 7.20632 97.9516 6.53391C97.7384 7.48465 97.8692 8.10251 98.399 8.17576C98.7162 8.21952 98.7144 7.79183 98.9554 7.52028C99.0269 7.4383 99.2162 7.75411 99.2805 7.56082C99.4904 6.9289 99.3649 6.18069 99.8673 6.53007C99.8894 6.54643 99.7743 6.89259 99.8538 6.92322C100.365 7.12156 100.501 6.45056 101.073 6.4234C101.521 6.40221 102.275 6.88344 102.782 6.98706C102.689 8.07491 103.202 7.86048 103.441 7.12125C103.773 7.17347 104.131 7.15161 104.446 7.27229C104.554 7.31344 104.466 7.62525 104.478 7.66008C104.663 8.20609 104.851 7.48204 104.921 7.45662C105.712 7.21445 106.326 7.79158 107.085 7.2704C107.112 7.25159 107.175 6.49498 107.361 7.05354C107.373 7.092 107.119 7.43064 107.466 7.46609C107.813 7.50168 108.472 7.92147 108.962 7.5767C109.078 7.49381 109.393 6.88233 109.62 7.36546C109.651 7.43107 109.614 7.64816 109.659 7.76961C109.803 8.15658 109.891 7.39102 110.063 8.04338C110.102 8.19284 110.152 8.33378 110.212 8.45687C110.412 8.87101 110.738 9.08057 111.118 8.71903C111.135 8.70526 111.225 8.09405 111.379 8.09516C111.623 8.09823 111.986 8.197 112.242 8.16638C112.366 8.15146 112.247 7.78457 112.267 7.77549C113.05 7.47701 113.664 7.71514 114.569 7.67016C114.736 7.66263 115.071 7.05779 115.472 7.37703C115.915 7.72588 116.02 9.60869 116.691 8.98461C116.952 8.73741 116.792 6.35172 117.633 7.41121C117.999 7.21866 118.386 7.15672 118.77 7.14249C119.47 7.11398 120.181 7.14928 120.841 6.7453C120.888 6.71708 120.922 6.04322 121.039 6.02954C121.215 6.01043 121.369 6.29235 121.496 6.28764C122.033 6.2752 122.454 5.92027 122.962 5.85677C123.154 5.83199 123.152 6.15595 123.382 6.12646C123.611 6.09685 123.678 5.65689 124.025 5.79174C124.287 5.89503 124.686 6.68442 125.008 6.72271C124.858 5.89511 125.071 5.87016 125.406 5.58189C125.471 5.52613 125.34 5.25264 125.368 5.21139C125.481 5.03699 125.654 5.25225 125.759 5.06693C125.784 5.02235 125.736 4.73916 125.754 4.68672C125.759 4.67327 125.764 4.66072 125.769 4.64902L125.697 4.66488C125.781 4.28018 126.302 4.75655 126.397 4.84319C126.759 5.1811 126.771 4.79071 127.005 4.90625C127.231 5.02534 127.004 5.29493 127.239 5.34481C127.559 5.41577 127.9 5.38513 128.233 5.35404C128.397 5.33845 128.56 5.32207 128.711 5.31526C128.892 5.30575 128.742 4.93208 128.767 4.92183C129.146 4.79801 129.545 5.19187 129.734 4.42178C130.057 6.38841 129.961 4.22206 130.523 4.60791C130.567 4.63926 130.634 5.57222 130.473 5.71185C130.313 5.85139 130.059 5.56444 129.84 5.78479C129.786 5.83623 129.518 6.7214 129.483 6.77629C129.195 7.20345 129.078 5.81386 129.055 5.73805C128.81 4.92241 128.505 5.8926 128.43 5.96691C128.39 6.00193 128.349 6.03201 128.312 6.05771C127.981 6.28038 127.665 6.19681 127.424 6.45013C127.247 6.63519 127.475 7.52205 127.317 7.5377C127.047 7.56779 126.695 7.3157 126.373 7.20402C126.343 7.21001 126.252 7.23419 126.221 7.23748C125.988 7.08948 125.778 7.0922 125.59 7.68347C125.508 7.93944 125.823 8.89543 125.225 8.21178C125.188 8.1684 124.71 7.53047 124.603 8.01619C124.59 8.07735 124.649 8.36257 124.621 8.39311C124.435 8.59235 124.244 8.39493 124.027 8.55316C123.811 8.71134 123.555 8.93366 123.257 8.89429C123.078 8.87104 122.754 8.38391 122.647 8.27018C122.344 7.94166 122.223 8.60602 121.99 8.17996C121.757 7.75148 121.895 7.00317 121.467 6.7812C121.599 7.52619 121.717 8.2944 121.841 9.04548C121.002 9.18266 120.124 9.09341 119.258 9.25325C119.151 9.27377 119.32 9.66031 119.205 9.6927C119.18 9.69961 119.155 9.70555 119.13 9.71062C118.813 9.78437 118.453 9.59321 118.084 9.78809C117.783 9.9487 117.52 10.4578 117.176 10.6565C116.74 9.8734 116.24 10.3044 115.783 10.3309C115.624 10.3404 115.58 10.113 115.455 10.0644C114.981 9.88593 115.341 10.5883 115.251 10.7317C114.851 11.3427 114.458 9.65736 113.892 9.80169C113.866 9.80883 113.626 10.783 113.575 10.848C113.279 11.2702 113.47 10.5391 113.244 10.5022C112.832 10.4322 112.54 10.2446 112.1 10.5537C111.976 10.6449 111.678 11.2435 111.384 10.8116C111.346 10.7551 111.351 10.4494 111.323 10.4328C110.813 10.1558 110.829 11.1111 110.53 11.44C110.431 11.55 110.31 11.5478 110.192 11.4885C109.986 11.3717 109.793 11.0359 109.74 10.9088C109.532 10.4134 109.906 10.6994 109.919 10.651C110.06 10.0759 109.764 10.1729 109.544 10.1218C109.524 9.18171 109.209 9.23449 109.313 10.0726C109.326 10.1642 109.501 10.0785 109.544 10.1218C109.343 11.042 108.984 11.156 108.622 10.2882C108.45 9.88131 108.623 9.41382 108.085 9.57594C107.842 9.64882 107.919 10.2978 107.697 10.4694C107.197 10.8611 106.559 10.2392 106.047 10.3159C105.862 10.3438 106.03 10.7043 105.901 10.7355C105.552 10.8188 105.27 10.5412 104.921 10.6615C104.89 10.6729 104.948 11.0468 104.842 11.0466C104.032 11.0517 103.341 10.7741 102.499 10.7067C102.089 10.6747 101.342 10.8185 100.922 10.7377C100.19 10.6014 99.3519 9.96725 98.7195 10.0221C98.3056 10.0561 98.3482 10.4347 98.1434 10.6638C97.744 11.1077 97.2681 10.1589 97.2091 10.0135C97.2074 10.0089 97.5634 9.96834 97.4049 9.75502C97.3513 9.34752 97.2133 10.0124 97.2091 10.0135C97.1684 9.91987 96.495 9.74188 96.3503 9.7927C96.2714 9.8207 96.2634 10.1745 96.2231 10.1825C95.2648 10.3646 94.348 10.3196 93.4691 10.0283C93.4541 10.019 93.5337 9.63325 93.4978 9.61622C93.4329 9.58409 93.3694 9.56329 93.3068 9.55191C92.883 9.47496 92.5251 9.82477 92.1114 10.0173C91.6343 10.2381 91.3049 10.0952 91.1392 9.39031C90.8017 9.42858 90.3703 9.06667 90.1215 8.84892C89.8766 8.63172 89.7321 9.38415 89.7056 9.3957C88.8921 9.77042 88.5243 9.27663 87.7571 9.09997C87.393 9.01477 86.6456 9.02154 86.2335 9.04753C85.9105 9.06978 85.7448 8.86504 85.4346 8.93648C85.3929 8.94598 85.3845 9.28896 85.3706 9.30022C84.9887 9.65726 85.2629 8.85513 85.2165 8.6982C85.0477 8.12736 84.9399 7.82086 84.4861 8.01184C84.3812 8.05545 83.9255 9.20073 83.7388 9.24392C83.4962 9.29788 83.644 8.88529 83.3898 8.95255C83.3684 8.95794 83.3328 9.22081 83.1847 9.18667C82.5021 9.0324 81.7634 8.761 81.0272 8.66357C80.9268 8.64922 80.9848 9.08571 80.8384 9.0717C80.5543 9.04407 80.2605 9.00221 79.9679 8.93926C79.6169 8.86154 79.253 8.74734 78.9082 8.57459C78.7702 8.50222 78.9077 8.22587 78.8896 8.13444C78.7694 7.57954 78.3667 8.29558 78.318 8.30303C77.1325 8.49726 76.365 7.68935 75.1454 7.86527C75.083 7.87669 74.49 8.63194 74.3586 7.90347C74.3501 7.85501 74.2252 7.11073 73.9715 7.57788C73.9556 7.60712 74.0467 7.99328 73.8136 7.92664C73.5809 7.86015 73.1786 8.06238 72.8986 7.61791C72.8128 7.47817 72.6549 6.73349 72.2783 7.26951C72.2498 7.30657 71.6419 8.54669 71.5689 7.63624C71.5587 7.4866 71.6864 6.54531 71.2698 6.98961C71.1902 7.07591 71.2935 7.30007 71.0963 7.41176C70.7941 7.5841 70.4424 7.29119 70.0551 7.67645C69.9877 7.74475 69.661 8.35898 69.506 7.85187C69.4817 7.77244 69.5743 7.4632 69.4697 7.41705C68.9682 7.19576 68.4066 7.35448 67.8947 7.0867C67.7152 6.99269 67.8584 6.49133 67.6765 6.33674C67.4958 6.18226 67.1077 6.01484 66.8842 6.23031C66.6604 6.44585 66.8113 7.27872 66.5014 7.31735C65.1512 7.48526 63.875 6.90579 62.5506 6.7452C62.3544 6.72141 62.4981 7.02393 62.2072 7.01C61.1364 6.95845 59.2806 7.12768 58.3826 6.46513C57.6609 5.93343 58.6176 5.59905 58.0556 5.37035C57.7821 5.26113 57.4447 6.19693 57.3774 6.22401C56.7175 6.50003 56.2856 6.06296 55.697 6.17212C55.5755 6.19485 55.6809 6.58338 55.5779 6.5985C55.2275 6.65369 54.8669 6.47103 54.5316 6.49336C54.4726 6.49764 54.4398 6.54572 54.4134 6.60091C54.3728 6.68621 54.3475 6.78851 54.2635 6.7725C53.9278 6.71266 53.6368 6.58129 53.3118 6.29706C53.2823 6.27116 53.4963 5.91115 53.2445 5.89083C52.8481 5.85927 52.3527 5.57425 51.881 5.84258C51.7425 5.92339 51.7208 6.59473 51.4358 6.12326C51.3771 6.02482 51.4723 5.22044 51.115 5.90832C51.0556 6.0226 50.4517 6.94737 50.1857 6.33458C50.1157 6.17329 49.9372 5.50857 49.7726 5.60823C49.75 5.62422 49.8301 5.98712 49.6933 6.01891C49.2081 6.12463 48.7044 6.07389 48.208 6.17525C48.0756 6.20304 48.2631 6.58089 48.0659 6.61039C47.52 6.69198 46.8505 6.58186 46.3239 6.45373C46.1293 6.40578 46.271 6.09946 46.2575 6.06551C46.0401 5.51334 45.8913 6.24931 45.8146 6.29081C45.3376 6.53898 44.9884 6.1849 44.5518 6.26847C44.432 6.29062 44.51 6.64447 44.4856 6.67543C44.2335 6.9777 44.4289 6.34854 44.2741 6.2759C43.8396 6.07032 43.3514 6.09011 42.908 6.12794C42.7453 6.14236 42.9212 6.55377 42.7753 6.56201C41.9117 6.61855 41.0173 6.56726 40.1793 6.33317C40.0217 6.28836 40.1245 5.97486 40.0923 5.90267C39.8708 5.39763 39.5294 6.08016 39.4527 6.14483C39.1025 6.44003 38.9695 6.16085 38.6614 6.21068C37.1627 6.45857 35.3119 6.27526 33.917 6.18095C33.0105 6.1203 32.2083 6.0274 31.426 5.97086C30.5976 5.91509 29.7864 5.88675 28.8969 5.95783C28.7849 5.9664 28.9129 6.38054 28.8169 6.3933C27.5716 6.53933 26.3323 6.42262 25.1069 6.60092C25.0051 6.6149 25.1706 7.00424 25.0088 7.04C24.6816 7.11591 24.2627 7.1155 23.9213 7.00747C23.757 6.95542 23.954 6.60357 23.7891 6.55816C23.3982 6.45214 22.9945 6.44831 22.6104 6.53812C22.4494 6.57711 22.722 6.96511 22.512 6.98425C21.0631 7.12546 19.7474 7.32553 18.2914 7.02684C18.1919 7.0063 17.9743 6.20592 17.7944 6.39681C17.8174 6.62504 17.8636 6.89027 17.8981 7.13252C17.6016 7.20326 17.3057 7.2679 17.0046 7.32939C15.2423 7.68905 13.4245 7.87929 11.62 8.27809C11.5306 8.29797 11.7872 8.68527 11.6151 8.72586C10.6185 8.96185 9.68278 9.32399 8.55245 9.17127C8.44032 9.15681 8.2962 8.39977 8.02784 8.59078C7.97984 8.62526 7.55573 8.84392 7.48215 9.03648C7.4728 9.06504 7.64791 9.38958 7.50496 9.43866C6.67715 9.71672 5.77349 9.87988 4.87397 9.90412C4.73012 9.90696 4.77016 9.49896 4.66629 9.49795C3.91914 9.49666 3.25842 9.98689 2.49781 9.84448C1.99235 9.74669 1.97264 9.06521 1.55797 8.50804C1.49584 8.43048 1.22339 8.49377 1.10065 8.13549C0.80033 7.23219 0.648793 6.19207 0.312373 5.23393C0.235469 5.02886 -0.0553234 5.35715 0.00929356 4.78953C0.0124828 4.75188 0.233868 4.50594 0.247906 4.31561C0.259654 4.18344 0.0701244 3.83771 0.120575 3.65832C0.175551 3.47779 0.358673 3.76062 0.467142 3.53575C0.573105 3.30923 0.376581 2.91032 0.679506 2.76951ZM89.0115 7.87604C88.8101 7.47671 88.585 8.80423 88.9038 8.5238C88.9192 8.50863 89.0218 7.89569 89.0115 7.87604ZM119.956 8.08266C119.523 7.55288 119.426 8.45039 119.74 8.86535C120.058 9.27841 120.089 8.24258 119.956 8.08266ZM123.304 6.99239C122.829 6.61291 123.156 8.49431 123.486 8.03193C123.505 8.00567 123.332 7.01439 123.304 6.99239ZM2.59909 8.01664C2.59323 7.99971 2.38668 8.04067 2.38772 8.05882C2.39959 8.50003 2.80645 8.41956 2.59909 8.01664ZM126.596 5.80913C126.41 5.59659 126.149 5.98603 126.39 6.24889C126.594 6.45774 126.83 6.07344 126.596 5.80913ZM76.1048 4.48045C76.1037 4.46006 75.9611 4.42309 75.9491 4.53588C75.912 4.89925 76.1259 4.82349 76.1048 4.48045ZM132.216 5.31507C131.361 5.2439 130.826 3.67142 131.769 3.84519C131.939 3.87689 131.404 4.34906 131.621 4.49052C132.016 4.74824 132.278 3.75843 132.681 4.28885C132.753 4.38593 132.264 5.32259 132.214 5.31727C132.215 5.31653 132.215 5.3158 132.216 5.31507ZM89.0907 6.25469C89.0878 6.2363 88.8875 6.19116 88.8806 6.208C88.7115 6.61576 89.1146 6.70691 89.0907 6.25469ZM67.6392 2.71228C67.6315 2.67339 67.1586 2.59577 67.142 2.62951C66.8344 3.3037 67.7829 3.46194 67.6392 2.71228ZM102.788 7.01667C103.036 6.60367 103.303 6.57097 103.44 7.12064C103.227 7.07827 103.002 7.05869 102.788 7.01667Z" fill="var(--stroke-0, #FF8CC9)"/>
</svg>
