<svg preserveAspectRatio="none" width="100%" height="100%" overflow="visible" style="display: block;" viewBox="0 0 17.0035 17.0035" fill="none" xmlns="http://www.w3.org/2000/svg">
<g id="Group">
<path id="Vector" fill-rule="evenodd" clip-rule="evenodd" d="M6.54075 3.49152L0 7.85202V17.0035H9.1515L13.512 10.4628C13.9404 10.7065 14.437 10.8029 14.9254 10.7371C15.4139 10.6712 15.8672 10.4468 16.2158 10.0983L16.3448 9.96927C16.7666 9.54733 17.0035 8.97514 17.0035 8.37852C17.0035 7.7819 16.7666 7.20971 16.3448 6.78777L10.2158 0.658769C9.79381 0.236959 9.22162 0 8.625 0C8.02838 0 7.45619 0.236959 7.03425 0.658769L6.90525 0.78777C6.55674 1.1363 6.33232 1.58963 6.26647 2.0781C6.20061 2.56656 6.29698 3.06314 6.54075 3.49152ZM1.5 8.65527V14.407L4.857 10.8258C4.62464 10.4268 4.50158 9.97367 4.50023 9.51199C4.49887 9.05031 4.61926 8.59644 4.84927 8.19613C5.07928 7.79583 5.41076 7.46324 5.81031 7.23191C6.20985 7.00058 6.66332 6.87869 7.125 6.87852C8.574 6.87852 9.75 8.05452 9.75 9.50352C9.74984 9.9509 9.63538 10.3908 9.41747 10.7815C9.19956 11.1723 8.88544 11.5008 8.5049 11.7361C8.12436 11.9713 7.69003 12.1054 7.24311 12.1257C6.79619 12.1459 6.35151 12.0516 5.95125 11.8518L2.52825 15.5035H8.34825L12.3848 9.44877L7.55475 4.61877L1.5 8.65527ZM7.125 8.37852C7.27279 8.37857 7.41912 8.40773 7.55563 8.46433C7.69215 8.52093 7.81619 8.60386 7.92065 8.7084C8.02512 8.81294 8.10797 8.93702 8.16448 9.07358C8.22099 9.21013 8.25005 9.35648 8.25 9.50427C8.24995 9.65206 8.22079 9.79839 8.16419 9.9349C8.10759 10.0714 8.02466 10.1955 7.92012 10.2999C7.81558 10.4044 7.6915 10.4872 7.55494 10.5437C7.41839 10.6003 7.27204 10.6293 7.12425 10.6293C6.82578 10.6292 6.53958 10.5105 6.3286 10.2994C6.11762 10.0883 5.99915 9.80199 5.99925 9.50352C5.99935 9.20505 6.11801 8.91885 6.32913 8.70787C6.54025 8.49689 6.82653 8.37842 7.125 8.37852ZM9.15525 1.71927L15.2843 7.84827C15.4249 7.98892 15.5038 8.17965 15.5038 8.37852C15.5038 8.57739 15.4249 8.76812 15.2843 8.90877L15.1553 9.03777C15.0146 9.17837 14.8239 9.25736 14.625 9.25736C14.4261 9.25736 14.2354 9.17837 14.0948 9.03777L7.96575 2.90877C7.82515 2.76812 7.74616 2.57739 7.74616 2.37852C7.74616 2.17965 7.82515 1.98892 7.96575 1.84827L8.09475 1.71927C8.2354 1.57867 8.42613 1.49968 8.625 1.49968C8.82387 1.49968 9.01461 1.57867 9.15525 1.71927Z" fill="var(--fill-0, #161616)"/>
</g>
</svg>
