<svg preserveAspectRatio="none" width="100%" height="100%" overflow="visible" style="display: block;" viewBox="0 0 23.625 19.5" fill="none" xmlns="http://www.w3.org/2000/svg">
<g id="linear color">
<path id="Vector" d="M17.4375 0C17.0398 0.000446645 16.6585 0.158625 16.3773 0.439833C16.0961 0.721041 15.9379 1.10231 15.9375 1.5V1.7497C14.3361 3.44475 12.1693 4.60542 10.6115 5.28717C8.69827 6.12441 6.93773 6.5625 6.1875 6.5625H1.6875C1.2401 6.563 0.811166 6.74095 0.494805 7.05731C0.178445 7.37367 0.000496285 7.8026 0 8.25V11.25C0.000496285 11.6974 0.178445 12.1263 0.494805 12.4427C0.811166 12.7591 1.2401 12.937 1.6875 12.9375H2.625V16.875C2.625 17.0242 2.68426 17.1673 2.78975 17.2727C2.89524 17.3782 3.03832 17.4375 3.1875 17.4375H5.0625C5.18794 17.4375 5.30979 17.3956 5.40867 17.3184C5.50755 17.2412 5.57779 17.1332 5.60822 17.0115L6.61842 12.9708C7.50127 13.0871 9.00225 13.5088 10.6115 14.213C12.1693 14.8948 14.3361 16.0554 15.9375 17.7505V18C15.9375 18.3978 16.0955 18.7794 16.3768 19.0607C16.6581 19.342 17.0397 19.5 17.4375 19.5C17.8353 19.5 18.2169 19.342 18.4982 19.0607C18.7795 18.7794 18.9375 18.3978 18.9375 18V1.5C18.9371 1.10231 18.7789 0.721041 18.4977 0.439833C18.2165 0.158625 17.8352 0.000446645 17.4375 0ZM5.625 11.8125H3.75V7.6875H5.625V11.8125ZM1.125 11.25V8.25C1.12516 8.10087 1.18448 7.95789 1.28993 7.85243C1.39538 7.74698 1.53837 7.68766 1.6875 7.6875H2.625V11.8125H1.6875C1.53837 11.8123 1.39538 11.753 1.28993 11.6476C1.18448 11.5421 1.12516 11.3991 1.125 11.25ZM4.62333 16.3125H3.75V12.9375H5.46708L4.62333 16.3125ZM6.75 11.856V7.644C8.72714 7.3807 12.9813 5.91619 15.9375 3.30998V16.19C12.9813 13.5838 8.72714 12.1193 6.75 11.856ZM17.8125 18C17.8125 18.0995 17.773 18.1948 17.7027 18.2652C17.6323 18.3355 17.537 18.375 17.4375 18.375C17.338 18.375 17.2427 18.3355 17.1723 18.2652C17.102 18.1948 17.0625 18.0995 17.0625 18V1.5C17.0625 1.40054 17.102 1.30516 17.1723 1.23484C17.2427 1.16451 17.338 1.125 17.4375 1.125C17.537 1.125 17.6323 1.16451 17.7027 1.23484C17.773 1.30516 17.8125 1.40054 17.8125 1.5V18ZM23.0625 9.1875H21.1875C21.0383 9.1875 20.8952 9.24676 20.7898 9.35225C20.6843 9.45774 20.625 9.60082 20.625 9.75C20.625 9.89918 20.6843 10.0423 20.7898 10.1477C20.8952 10.2532 21.0383 10.3125 21.1875 10.3125H23.0625C23.2117 10.3125 23.3548 10.2532 23.4602 10.1477C23.5657 10.0423 23.625 9.89918 23.625 9.75C23.625 9.60082 23.5657 9.45774 23.4602 9.35225C23.3548 9.24676 23.2117 9.1875 23.0625 9.1875ZM20.262 6.25012C20.3463 6.25012 20.4294 6.23108 20.5053 6.19444L22.1953 5.38195C22.3298 5.31731 22.433 5.2019 22.4824 5.06111C22.5318 4.92033 22.5232 4.7657 22.4585 4.63125C22.3939 4.4968 22.2785 4.39353 22.1377 4.34417C21.9969 4.29481 21.8423 4.3034 21.7078 4.36805L20.018 5.18058C19.9031 5.23579 19.8103 5.32844 19.7549 5.44332C19.6995 5.55819 19.6848 5.68848 19.7132 5.81282C19.7415 5.93716 19.8113 6.04815 19.9111 6.12761C20.0109 6.20707 20.1347 6.25027 20.2622 6.25012H20.262ZM22.1953 14.118L20.5055 13.3056C20.3712 13.2421 20.2173 13.2343 20.0773 13.284C19.9373 13.3336 19.8226 13.4365 19.7583 13.5704C19.6939 13.7042 19.6851 13.8581 19.7337 13.9984C19.7824 14.1388 19.8846 14.2542 20.018 14.3194L21.7078 15.132C21.8423 15.1966 21.9969 15.2052 22.1377 15.1558C22.2785 15.1065 22.3939 15.0032 22.4585 14.8688C22.5232 14.7343 22.5318 14.5797 22.4824 14.4389C22.433 14.2981 22.3298 14.1827 22.1953 14.118Z" fill="var(--fill-0, black)"/>
</g>
</svg>
