<svg preserveAspectRatio="none" width="100%" height="100%" overflow="visible" style="display: block;" viewBox="0 0 21.5 18.5187" fill="none" xmlns="http://www.w3.org/2000/svg">
<g id="Group">
<path id="Vector" fill-rule="evenodd" clip-rule="evenodd" d="M0 0.75C0 0.551088 0.0790177 0.360322 0.21967 0.21967C0.360322 0.0790175 0.551088 0 0.75 0H20.75C20.9489 0 21.1397 0.0790175 21.2803 0.21967C21.421 0.360322 21.5 0.551088 21.5 0.75C21.5 0.948912 21.421 1.13968 21.2803 1.28033C21.1397 1.42098 20.9489 1.5 20.75 1.5H0.75C0.551088 1.5 0.360322 1.42098 0.21967 1.28033C0.0790177 1.13968 0 0.948912 0 0.75Z" fill="var(--fill-0, black)"/>
<path id="Vector_2" fill-rule="evenodd" clip-rule="evenodd" d="M2 0.75C2 0.551088 2.07902 0.360322 2.21967 0.21967C2.36032 0.0790175 2.55109 0 2.75 0H18.75C18.9489 0 19.1397 0.0790175 19.2803 0.21967C19.421 0.360322 19.5 0.551088 19.5 0.75V13.75C19.5 13.9489 19.421 14.1397 19.2803 14.2803C19.1397 14.421 18.9489 14.5 18.75 14.5H2.75C2.55109 14.5 2.36032 14.421 2.21967 14.2803C2.07902 14.1397 2 13.9489 2 13.75V0.75ZM3.5 1.5V13H18V1.5H3.5Z" fill="var(--fill-0, black)"/>
<path id="Vector_3" fill-rule="evenodd" clip-rule="evenodd" d="M9.22 4.22C9.36063 4.07955 9.55125 4.00066 9.75 4.00066C9.94875 4.00066 10.1394 4.07955 10.28 4.22L12.78 6.72C12.9205 6.86063 12.9993 7.05125 12.9993 7.25C12.9993 7.44875 12.9205 7.63937 12.78 7.78L10.28 10.28C10.2113 10.3537 10.1285 10.4128 10.0365 10.4538C9.94454 10.4948 9.84522 10.5168 9.74452 10.5186C9.64382 10.5204 9.54379 10.5018 9.4504 10.4641C9.35701 10.4264 9.27218 10.3703 9.20096 10.299C9.12974 10.2278 9.0736 10.143 9.03588 10.0496C8.99816 9.95621 8.97963 9.85618 8.98141 9.75548C8.98318 9.65478 9.00523 9.55546 9.04622 9.46346C9.08721 9.37146 9.14631 9.28866 9.22 9.22L11.19 7.25L9.22 5.28C9.07955 5.13937 9.00066 4.94875 9.00066 4.75C9.00066 4.55125 9.07955 4.36063 9.22 4.22ZM10.22 13.22C10.3606 13.0795 10.5512 13.0007 10.75 13.0007C10.9488 13.0007 11.1394 13.0795 11.28 13.22L15.28 17.22C15.3537 17.2887 15.4128 17.3715 15.4538 17.4635C15.4948 17.5555 15.5168 17.6548 15.5186 17.7555C15.5204 17.8562 15.5018 17.9562 15.4641 18.0496C15.4264 18.143 15.3703 18.2278 15.299 18.299C15.2278 18.3703 15.143 18.4264 15.0496 18.4641C14.9562 18.5018 14.8562 18.5204 14.7555 18.5186C14.6548 18.5168 14.5555 18.4948 14.4635 18.4538C14.3715 18.4128 14.2887 18.3537 14.22 18.28L10.75 14.81L7.28 18.28C7.13782 18.4125 6.94978 18.4846 6.75548 18.4812C6.56118 18.4777 6.37579 18.399 6.23838 18.2616C6.10097 18.1242 6.02225 17.9388 6.01883 17.7445C6.0154 17.5502 6.08752 17.3622 6.22 17.22L10.22 13.22Z" fill="var(--fill-0, black)"/>
</g>
</svg>
