<svg preserveAspectRatio="none" width="100%" height="100%" overflow="visible" style="display: block;" viewBox="0 0 18.323 24" fill="none" xmlns="http://www.w3.org/2000/svg">
<g id="Group">
<path id="Vector" d="M0 0V18.8078L5.19216 24H18.323V0H0ZM4.78027 21.5994L2.40056 19.2197H4.78027V21.5994ZM16.9168 22.5938H6.18652V17.8135H1.40625V1.40625H16.9168V22.5938Z" fill="var(--fill-0, #161616)"/>
<path id="Vector_2" d="M15.5105 2.8125H2.8125V13.0287H15.5105L15.5105 2.8125ZM4.96711 11.6224L6.71991 9.40359L8.47275 11.6224H4.96711ZM14.1042 11.6224H10.2649L9.4342 10.5709L11.603 7.8255L14.1042 10.9917V11.6224ZM14.1042 8.72316L11.603 5.55694L8.53814 9.43664L6.71995 7.13503L4.21875 10.3013V4.21875H14.1042V8.72316Z" fill="var(--fill-0, #161616)"/>
</g>
</svg>
