<svg preserveAspectRatio="none" width="100%" height="100%" overflow="visible" style="display: block;" viewBox="0 0 21 24" fill="none" xmlns="http://www.w3.org/2000/svg">
<g id="Group">
<path id="Vector" d="M19.2015 0H8.32969C7.33805 0 6.53123 0.806812 6.53123 1.79845V3.77091H1.79672C0.805969 3.77091 0 4.57772 0 5.56936V22.2015C0 23.1932 0.805969 24 1.79672 24H13.7656C14.154 24 14.4688 23.6852 14.4688 23.2969V20.2291H19.2016C20.1932 20.2291 21 19.4223 21 18.4306V1.79845C21 0.806812 20.1932 0 19.2015 0ZM1.40625 22.2015V5.56936C1.40625 5.35313 1.58142 5.17716 1.79672 5.17716H6.53128V19.5259C6.53128 19.7908 6.67781 20.0215 6.89419 20.1414L11.1416 22.5938H1.79672C1.58142 22.5938 1.40625 22.4178 1.40625 22.2015ZM13.0625 22.079L9.85842 20.2291H13.0625V22.079ZM19.5938 18.4306C19.5938 18.6469 19.4178 18.8228 19.2015 18.8228H7.93748V1.79845C7.93748 1.58222 8.11341 1.40625 8.32969 1.40625H19.2015C19.4178 1.40625 19.5938 1.58222 19.5938 1.79845V18.4306Z" fill="var(--fill-0, black)"/>
<path id="Vector_2" d="M17.9531 2.34375H9.57811C9.1898 2.34375 8.87498 2.65856 8.87498 3.04688V7.03083C8.87498 7.41914 9.1898 7.73395 9.57811 7.73395H17.9531C18.3414 7.73395 18.6562 7.41914 18.6562 7.03083V3.04688C18.6562 2.65856 18.3414 2.34375 17.9531 2.34375ZM17.25 6.3277H10.2812V3.75H17.25V6.3277ZM17.9531 9.1402H9.57811C9.1898 9.1402 8.87498 9.45502 8.87498 9.84333C8.87498 10.2316 9.1898 10.5465 9.57811 10.5465H17.9531C18.3414 10.5465 18.6562 10.2316 18.6562 9.84333C18.6562 9.45502 18.3414 9.1402 17.9531 9.1402ZM9.57811 12.8902H16.0781C16.4664 12.8902 16.7812 12.5754 16.7812 12.1871C16.7812 11.7988 16.4664 11.484 16.0781 11.484H9.57811C9.1898 11.484 8.87498 11.7988 8.87498 12.1871C8.87498 12.5754 9.1898 12.8902 9.57811 12.8902ZM16.8916 13.8277H9.57811C9.1898 13.8277 8.87498 14.1425 8.87498 14.5308C8.87498 14.9191 9.1898 15.234 9.57811 15.234H16.8916C17.2799 15.234 17.5947 14.9191 17.5947 14.5308C17.5947 14.1425 17.28 13.8277 16.8916 13.8277ZM11.6688 16.1715H9.57811C9.1898 16.1715 8.87498 16.4863 8.87498 16.8746C8.87498 17.2629 9.1898 17.5777 9.57811 17.5777H11.6688C12.0571 17.5777 12.372 17.2629 12.372 16.8746C12.372 16.4863 12.0571 16.1715 11.6688 16.1715Z" fill="var(--fill-0, black)"/>
</g>
</svg>
