<svg preserveAspectRatio="none" width="100%" height="100%" overflow="visible" style="display: block;" viewBox="0 0 21 19.5" fill="none" xmlns="http://www.w3.org/2000/svg">
<g id="Group">
<path id="Vector" fill-rule="evenodd" clip-rule="evenodd" d="M6 6C5.80109 6 5.61032 6.07902 5.46967 6.21967C5.32902 6.36032 5.25 6.55109 5.25 6.75V15.75C5.25 15.9489 5.32902 16.1397 5.46967 16.2803C5.61032 16.421 5.80109 16.5 6 16.5H15C15.1989 16.5 15.3897 16.421 15.5303 16.2803C15.671 16.1397 15.75 15.9489 15.75 15.75V6.75C15.75 6.55109 15.671 6.36032 15.5303 6.21967C15.3897 6.07902 15.1989 6 15 6H6ZM14.25 7.9395V7.5H6.75V10.9395L8.84475 8.84475C8.9854 8.70415 9.17613 8.62516 9.375 8.62516C9.57387 8.62516 9.7646 8.70415 9.90525 8.84475L11.625 10.5645L14.25 7.9395ZM6.75 13.0605V15H13.9395L9.375 10.4355L6.75 13.0605ZM14.25 13.1895V10.0605L12.6855 11.625L14.25 13.1895Z" fill="var(--fill-0, black)"/>
<path id="Vector_2" fill-rule="evenodd" clip-rule="evenodd" d="M2.25 0C1.65326 0 1.08097 0.237053 0.65901 0.65901C0.237053 1.08097 0 1.65326 0 2.25V17.25C0 17.8467 0.237053 18.419 0.65901 18.841C1.08097 19.2629 1.65326 19.5 2.25 19.5H18.75C19.3467 19.5 19.919 19.2629 20.341 18.841C20.7629 18.419 21 17.8467 21 17.25V2.25C21 1.65326 20.7629 1.08097 20.341 0.65901C19.919 0.237053 19.3467 0 18.75 0H2.25ZM1.5 17.25V4.5H19.5V17.25C19.5 17.4489 19.421 17.6397 19.2803 17.7803C19.1397 17.921 18.9489 18 18.75 18H2.25C2.05109 18 1.86032 17.921 1.71967 17.7803C1.57902 17.6397 1.5 17.4489 1.5 17.25ZM19.5 2.25V3H1.5V2.25C1.5 2.05109 1.57902 1.86032 1.71967 1.71967C1.86032 1.57902 2.05109 1.5 2.25 1.5H18.75C18.9489 1.5 19.1397 1.57902 19.2803 1.71967C19.421 1.86032 19.5 2.05109 19.5 2.25Z" fill="var(--fill-0, black)"/>
</g>
</svg>
