<svg preserveAspectRatio="none" width="100%" height="100%" overflow="visible" style="display: block;" viewBox="0 0 21.2314 18.665" fill="none" xmlns="http://www.w3.org/2000/svg">
<g id="Group 1">
<path id="Union" d="M21.2314 3.76855H19.9893V14.8965H21.2314V18.665H0V14.8965H1.24121V3.76855H0V0H21.2314V3.76855ZM1.28613 17.3789H3.35156V16.1826H1.28613V17.3789ZM4.6377 17.3789H6.66211V16.1826H4.6377V17.3789ZM7.94824 17.3789H9.97266V16.1826H7.94824V17.3789ZM11.2588 17.3789H13.2832V16.1826H11.2588V17.3789ZM14.5693 17.3789H16.5928V16.1826H14.5693V17.3789ZM17.8789 17.3789H19.9443V16.1826H17.8789V17.3789ZM2.52734 14.8965H18.7031V3.76855H2.52734V14.8965ZM14.2578 9.33301L8.73145 13.0166V5.64844L14.2578 9.33301ZM10.0176 10.6133L11.9385 9.33203L10.0176 8.05078V10.6133ZM1.28613 2.48242H3.35156V1.28613H1.28613V2.48242ZM4.6377 2.48242H6.66211V1.28613H4.6377V2.48242ZM7.94824 2.48242H9.97266V1.28613H7.94824V2.48242ZM11.2588 2.48242H13.2832V1.28613H11.2588V2.48242ZM14.5693 2.48242H16.5928V1.28613H14.5693V2.48242ZM17.8789 2.48242H19.9443V1.28613H17.8789V2.48242Z" fill="var(--fill-0, black)"/>
</g>
</svg>
