<svg preserveAspectRatio="none" width="100%" height="100%" overflow="visible" style="display: block;" viewBox="0 0 18.6713 21.0641" fill="none" xmlns="http://www.w3.org/2000/svg">
<g id="Union">
<path fill-rule="evenodd" clip-rule="evenodd" d="M15.8821 15.6254H5.05947V6.53765H15.8821V15.6254ZM6.13348 14.5514H14.8081V7.61166H6.13348V14.5514Z" fill="var(--fill-0, black)"/>
<path d="M14.932 5.13305H6.00956V4.05904H14.932V5.13305Z" fill="var(--fill-0, black)"/>
<path fill-rule="evenodd" clip-rule="evenodd" d="M4.79194 1.31879H16.1496V0H17.2237V1.31879H18.6713V18.4617C18.6713 19.8989 17.5061 21.0641 16.0688 21.0641H2.37985C1.06553 21.0641 0 19.9985 0 18.6842V17.1537H2.10671V1.31879H3.71793V0H4.79194V1.31879ZM3.18072 17.1537H14.726V18.6842C14.726 19.4054 15.3106 19.99 16.0319 19.99H16.0688C16.913 19.99 17.5972 19.3058 17.5972 18.4617V2.3928H17.2237V2.39317H3.71793V2.3928H3.18072V17.1537ZM1.07401 18.6842C1.07401 19.4054 1.65869 19.99 2.37985 19.99H14.042C13.7954 19.6152 13.652 19.1664 13.652 18.6842V18.2278H1.07401V18.6842Z" fill="var(--fill-0, black)"/>
</g>
</svg>
