<svg width="273" height="50" viewBox="0 0 273 50" fill="none" xmlns="http://www.w3.org/2000/svg">
<rect width="268" height="42" transform="translate(0 3.80558) scale(1.00147)" fill="#E7ECFF"/>
<path d="M20.5967 37.4849C17.7645 37.4849 15.2689 36.868 13.1097 35.6342C10.9786 34.3724 9.31013 32.6338 8.10437 30.4186C6.92664 28.2033 6.33778 25.6516 6.33778 22.7634C6.33778 20.6322 6.68829 18.6834 7.38932 16.9168C8.11839 15.1222 9.11385 13.5659 10.3757 12.2479C11.6656 10.93 13.1658 9.90652 14.8763 9.17745C16.6148 8.44838 18.5076 8.08385 20.5546 8.08385C21.7043 8.08385 22.9942 8.22405 24.4243 8.50446C25.8544 8.75683 27.2705 9.28961 28.6725 10.1028L28.8408 16.2017H26.2329L25.3917 11.3226C24.6346 10.902 23.8915 10.6075 23.1624 10.4393C22.4614 10.2711 21.7744 10.1869 21.1014 10.1869C19.2227 10.1869 17.5122 10.6636 15.9699 11.617C14.4276 12.5704 13.1938 13.9865 12.2685 15.8652C11.3712 17.716 10.9225 20.0153 10.9225 22.7634C10.9225 25.5114 11.3431 27.8248 12.1843 29.7035C13.0256 31.5823 14.1893 32.9984 15.6755 33.9518C17.1897 34.9051 18.9002 35.3818 20.807 35.3818C21.6202 35.3818 22.4474 35.2977 23.2886 35.1295C24.1579 34.9332 24.9991 34.6388 25.8123 34.2462L26.6535 29.367H29.2614L29.0931 35.466C27.8032 36.167 26.4292 36.6717 24.9711 36.9802C23.541 37.3167 22.0829 37.4849 20.5967 37.4849ZM32.4121 36.854V35.3398L35.4405 34.793C35.4686 33.7274 35.4826 32.5777 35.4826 31.3439C35.5106 30.0821 35.5246 28.9745 35.5246 28.0211V26.0021C35.5246 24.8524 35.5106 23.899 35.4826 23.1419C35.4826 22.3848 35.4545 21.5856 35.3985 20.7444L32.0756 20.3658V18.8937L37.9642 16.3279L38.5951 16.7485L39.0578 21.7118C39.7588 20.0294 40.6562 18.7114 41.7498 17.758C42.8714 16.8046 43.993 16.3279 45.1147 16.3279C45.7596 16.3279 46.3625 16.4681 46.9233 16.7485C47.4842 17.029 47.8908 17.4075 48.1431 17.8842C48.1431 19.9312 47.3159 20.9547 45.6615 20.9547C45.1848 20.9547 44.7361 20.8706 44.3155 20.7023C43.8949 20.506 43.4883 20.2397 43.0957 19.9032L42.591 19.4405C41.7498 20.0574 41.0487 20.8145 40.4879 21.7118C39.9271 22.6091 39.4644 23.6607 39.0999 24.8664V28.0211C39.0999 28.9464 39.0999 30.026 39.0999 31.2598C39.1279 32.4936 39.156 33.6433 39.184 34.7089L42.6331 35.3398V36.854H32.4121ZM59.0848 18.2628C58.2996 18.2628 57.5005 18.4871 56.6873 18.9357C55.9021 19.3844 55.2151 20.0995 54.6262 21.0809C54.0654 22.0623 53.7009 23.3662 53.5326 24.9926H61.1879C62.1973 24.9926 62.8563 24.7823 63.1648 24.3617C63.5012 23.9411 63.6695 23.4223 63.6695 22.8054C63.6695 21.9922 63.4592 21.2491 63.0386 20.5762C62.646 19.8751 62.0992 19.3143 61.3982 18.8937C60.7252 18.4731 59.954 18.2628 59.0848 18.2628ZM59.0427 37.4008C56.2106 37.4008 53.9392 36.4895 52.2287 34.6668C50.5182 32.8161 49.663 30.2784 49.663 27.0536C49.663 24.8945 50.0976 23.0157 50.9669 21.4174C51.8642 19.819 53.0419 18.5712 54.5001 17.6739C55.9862 16.7766 57.5986 16.3279 59.3371 16.3279C60.7953 16.3279 62.1132 16.6504 63.2909 17.2953C64.4687 17.9403 65.408 18.8656 66.1091 20.0714C66.8101 21.2491 67.1606 22.6933 67.1606 24.4038C67.1606 24.8805 67.1326 25.3291 67.0765 25.7497C67.0204 26.1423 66.9503 26.4788 66.8662 26.7592H53.4485C53.5046 29.339 54.1495 31.3019 55.3833 32.6478C56.6172 33.9938 58.2435 34.6668 60.2625 34.6668C61.6085 34.6668 62.7301 34.4004 63.6274 33.8676C64.5247 33.3068 65.352 32.5918 66.1091 31.7225L67.1185 32.5217C66.3334 34.0078 65.2678 35.1996 63.9219 36.0969C62.5759 36.9662 60.9495 37.4008 59.0427 37.4008ZM86.0483 37.2746C85.0388 37.2746 84.1976 36.9802 83.5246 36.3913C82.8516 35.8025 82.431 35.0173 82.2627 34.0359C81.1131 35.1575 80.1036 35.9988 79.2343 36.5596C78.365 37.1204 77.3135 37.4008 76.0797 37.4008C74.5374 37.4008 73.2055 36.9662 72.0838 36.0969C70.9902 35.1996 70.4434 33.8816 70.4434 32.1431C70.4434 31.3299 70.6257 30.5728 70.9902 29.8718C71.3828 29.1707 72.0838 28.4837 73.0933 27.8108C74.1028 27.1378 75.5469 26.4648 77.4256 25.7918C78.0706 25.5675 78.8137 25.3291 79.6549 25.0767C80.4961 24.8244 81.3374 24.6 82.1786 24.4038V23.3522C82.1786 21.3052 81.8702 19.9452 81.2533 19.2722C80.6364 18.5993 79.6269 18.2628 78.2248 18.2628C77.9164 18.2628 77.5659 18.2768 77.1733 18.3048C76.8087 18.3329 76.4021 18.403 75.9535 18.5151L75.1543 21.2491C74.7617 22.5951 74.0327 23.2681 72.9671 23.2681C71.7894 23.2681 71.1304 22.6933 70.9902 21.5436C71.3828 19.9452 72.3081 18.6834 73.7663 17.758C75.2525 16.8046 77.0611 16.3279 79.1922 16.3279C81.4075 16.3279 83.0479 16.8887 84.1134 18.0104C85.179 19.104 85.7118 20.9827 85.7118 23.6467V32.6058C85.7118 33.5031 85.852 34.148 86.1324 34.5406C86.4128 34.9051 86.7774 35.0874 87.226 35.0874C87.5905 35.0874 87.899 35.0033 88.1514 34.835C88.4037 34.6668 88.6421 34.4425 88.8664 34.1621L89.7076 35.0874C89.2029 35.9006 88.6421 36.4755 88.0252 36.8119C87.4363 37.1204 86.7774 37.2746 86.0483 37.2746ZM74.1869 31.5122C74.1869 32.6338 74.5094 33.433 75.1543 33.9097C75.7993 34.3864 76.5984 34.6247 77.5518 34.6247C77.9724 34.6247 78.365 34.5687 78.7296 34.4565C79.1221 34.3443 79.5848 34.134 80.1176 33.8256C80.6504 33.4891 81.3374 33.0124 82.1786 32.3955V25.96C81.4495 26.1563 80.7345 26.3807 80.0335 26.633C79.3324 26.8574 78.7576 27.0536 78.3089 27.2219C77.1032 27.6986 76.2059 28.1893 75.617 28.694C75.0281 29.1988 74.6356 29.6895 74.4393 30.1662C74.271 30.6429 74.1869 31.0916 74.1869 31.5122ZM98.3234 37.4008C96.8653 37.4008 95.7016 37.0082 94.8323 36.2231C93.963 35.4379 93.5284 34.2322 93.5284 32.6058C93.5284 32.073 93.5284 31.5542 93.5284 31.0495C93.5564 30.5167 93.5704 29.8437 93.5704 29.0305V19.104H90.0793V17.2533L93.8228 16.7906L94.9164 11.1543H97.4401L97.1877 16.8747H102.866V19.104H97.1457V32.1431C97.1457 33.2087 97.356 33.9938 97.7766 34.4986C98.1972 34.9753 98.758 35.2136 99.4591 35.2136C99.9358 35.2136 100.384 35.1155 100.805 34.9192C101.254 34.7229 101.744 34.4425 102.277 34.0779L103.287 35.1715C102.137 36.6577 100.483 37.4008 98.3234 37.4008ZM104.601 36.854V35.3398L107.755 34.7509C107.783 33.6854 107.797 32.5357 107.797 31.3019C107.826 30.04 107.84 28.9464 107.84 28.0211V26.0442C107.84 24.8945 107.826 23.9411 107.797 23.184C107.797 22.3988 107.769 21.5856 107.713 20.7444L104.348 20.3658V18.8937L110.826 16.3279L111.457 16.7485L111.331 22.4689V28.0211C111.331 28.9464 111.331 30.04 111.331 31.3019C111.359 32.5357 111.387 33.6854 111.415 34.7509L114.359 35.3398V36.854H104.601ZM109.564 11.7011C108.779 11.7011 108.106 11.4488 107.545 10.944C107.012 10.4393 106.746 9.79435 106.746 9.0092C106.746 8.19601 107.012 7.55107 107.545 7.07437C108.106 6.56963 108.779 6.31726 109.564 6.31726C110.349 6.31726 111.008 6.56963 111.541 7.07437C112.102 7.55107 112.382 8.19601 112.382 9.0092C112.382 9.79435 112.102 10.4393 111.541 10.944C111.008 11.4488 110.349 11.7011 109.564 11.7011ZM127.661 18.5151V16.8747H135.653V18.5151L133.339 19.0619L126.525 37.1064H124.717L117.062 18.9357L114.79 18.5151V16.8747H124.969V18.5151L121.268 19.0619L126.399 32.5217L131.068 19.104L127.661 18.5151ZM146.269 18.2628C145.484 18.2628 144.685 18.4871 143.872 18.9357C143.086 19.3844 142.399 20.0995 141.811 21.0809C141.25 22.0623 140.885 23.3662 140.717 24.9926H148.372C149.382 24.9926 150.041 24.7823 150.349 24.3617C150.686 23.9411 150.854 23.4223 150.854 22.8054C150.854 21.9922 150.644 21.2491 150.223 20.5762C149.83 19.8751 149.284 19.3143 148.583 18.8937C147.91 18.4731 147.138 18.2628 146.269 18.2628ZM146.227 37.4008C143.395 37.4008 141.124 36.4895 139.413 34.6668C137.703 32.8161 136.847 30.2784 136.847 27.0536C136.847 24.8945 137.282 23.0157 138.151 21.4174C139.049 19.819 140.226 18.5712 141.684 17.6739C143.171 16.7766 144.783 16.3279 146.522 16.3279C147.98 16.3279 149.298 16.6504 150.475 17.2953C151.653 17.9403 152.592 18.8656 153.293 20.0714C153.994 21.2491 154.345 22.6933 154.345 24.4038C154.345 24.8805 154.317 25.3291 154.261 25.7497C154.205 26.1423 154.135 26.4788 154.051 26.7592H140.633C140.689 29.339 141.334 31.3019 142.568 32.6478C143.802 33.9938 145.428 34.6668 147.447 34.6668C148.793 34.6668 149.915 34.4004 150.812 33.8676C151.709 33.3068 152.536 32.5918 153.293 31.7225L154.303 32.5217C153.518 34.0078 152.452 35.1996 151.106 36.0969C149.76 36.9662 148.134 37.4008 146.227 37.4008ZM167.563 10.4393V8.71477H179.467V10.4393L175.597 10.902C175.569 12.6686 175.541 14.4632 175.513 16.2859C175.513 18.1085 175.513 19.9312 175.513 21.7539V23.8149C175.513 25.6095 175.513 27.4182 175.513 29.2408C175.541 31.0355 175.569 32.8441 175.597 34.6668L179.467 35.1295V36.854H167.563V35.1295L171.433 34.6668C171.489 32.9002 171.517 31.1056 171.517 29.2829C171.517 27.4602 171.517 25.6376 171.517 23.8149V21.7539C171.517 19.9312 171.517 18.1226 171.517 16.3279C171.517 14.5053 171.489 12.6966 171.433 10.902L167.563 10.4393ZM185.928 26.9695C185.928 29.7175 186.475 31.7505 187.568 33.0685C188.69 34.3583 190.092 35.0033 191.774 35.0033C192.7 35.0033 193.513 34.821 194.214 34.4565C194.943 34.0639 195.7 33.433 196.485 32.5637V20.9126C195.532 20.0714 194.677 19.4966 193.92 19.1881C193.162 18.8797 192.433 18.7254 191.732 18.7254C190.695 18.7254 189.727 19.0199 188.83 19.6087C187.961 20.1696 187.26 21.0669 186.727 22.3007C186.194 23.5064 185.928 25.0627 185.928 26.9695ZM196.906 37.2746L196.611 34.3724C195.882 35.3258 195.041 36.0689 194.088 36.6016C193.162 37.1344 192.041 37.4008 190.723 37.4008C189.012 37.4008 187.512 36.9662 186.222 36.0969C184.932 35.2276 183.923 34.0219 183.194 32.4796C182.493 30.9093 182.142 29.1006 182.142 27.0536C182.142 24.8945 182.535 23.0157 183.32 21.4174C184.105 19.819 185.171 18.5712 186.517 17.6739C187.863 16.7766 189.391 16.3279 191.101 16.3279C192.083 16.3279 193.022 16.5242 193.92 16.9168C194.845 17.3094 195.742 18.0244 196.611 19.0619V9.556L193.036 9.13539V7.66323L199.598 5.77046L200.187 6.10695L200.018 12.0797V34.835L203.425 35.3398V36.854L196.906 37.2746ZM215.179 18.2628C214.394 18.2628 213.594 18.4871 212.781 18.9357C211.996 19.3844 211.309 20.0995 210.72 21.0809C210.159 22.0623 209.795 23.3662 209.627 24.9926H217.282C218.291 24.9926 218.95 24.7823 219.259 24.3617C219.595 23.9411 219.763 23.4223 219.763 22.8054C219.763 21.9922 219.553 21.2491 219.133 20.5762C218.74 19.8751 218.193 19.3143 217.492 18.8937C216.819 18.4731 216.048 18.2628 215.179 18.2628ZM215.137 37.4008C212.305 37.4008 210.033 36.4895 208.323 34.6668C206.612 32.8161 205.757 30.2784 205.757 27.0536C205.757 24.8945 206.192 23.0157 207.061 21.4174C207.958 19.819 209.136 18.5712 210.594 17.6739C212.08 16.7766 213.693 16.3279 215.431 16.3279C216.889 16.3279 218.207 16.6504 219.385 17.2953C220.563 17.9403 221.502 18.8656 222.203 20.0714C222.904 21.2491 223.255 22.6933 223.255 24.4038C223.255 24.8805 223.227 25.3291 223.17 25.7497C223.114 26.1423 223.044 26.4788 222.96 26.7592H209.542C209.599 29.339 210.243 31.3019 211.477 32.6478C212.711 33.9938 214.337 34.6668 216.356 34.6668C217.702 34.6668 218.824 34.4004 219.721 33.8676C220.619 33.3068 221.446 32.5918 222.203 31.7225L223.213 32.5217C222.427 34.0078 221.362 35.1996 220.016 36.0969C218.67 36.9662 217.043 37.4008 215.137 37.4008ZM242.142 37.2746C241.133 37.2746 240.292 36.9802 239.619 36.3913C238.946 35.8025 238.525 35.0173 238.357 34.0359C237.207 35.1575 236.198 35.9988 235.328 36.5596C234.459 37.1204 233.407 37.4008 232.174 37.4008C230.631 37.4008 229.299 36.9662 228.178 36.0969C227.084 35.1996 226.537 33.8816 226.537 32.1431C226.537 31.3299 226.72 30.5728 227.084 29.8718C227.477 29.1707 228.178 28.4837 229.187 27.8108C230.197 27.1378 231.641 26.4648 233.52 25.7918C234.165 25.5675 234.908 25.3291 235.749 25.0767C236.59 24.8244 237.431 24.6 238.273 24.4038V23.3522C238.273 21.3052 237.964 19.9452 237.347 19.2722C236.73 18.5993 235.721 18.2628 234.319 18.2628C234.01 18.2628 233.66 18.2768 233.267 18.3048C232.903 18.3329 232.496 18.403 232.047 18.5151L231.248 21.2491C230.856 22.5951 230.127 23.2681 229.061 23.2681C227.883 23.2681 227.224 22.6933 227.084 21.5436C227.477 19.9452 228.402 18.6834 229.86 17.758C231.346 16.8046 233.155 16.3279 235.286 16.3279C237.501 16.3279 239.142 16.8887 240.207 18.0104C241.273 19.104 241.806 20.9827 241.806 23.6467V32.6058C241.806 33.5031 241.946 34.148 242.226 34.5406C242.507 34.9051 242.871 35.0874 243.32 35.0874C243.684 35.0874 243.993 35.0033 244.245 34.835C244.498 34.6668 244.736 34.4425 244.96 34.1621L245.802 35.0874C245.297 35.9006 244.736 36.4755 244.119 36.8119C243.53 37.1204 242.871 37.2746 242.142 37.2746ZM230.281 31.5122C230.281 32.6338 230.603 33.433 231.248 33.9097C231.893 34.3864 232.692 34.6247 233.646 34.6247C234.066 34.6247 234.459 34.5687 234.824 34.4565C235.216 34.3443 235.679 34.134 236.212 33.8256C236.744 33.4891 237.431 33.0124 238.273 32.3955V25.96C237.544 26.1563 236.828 26.3807 236.127 26.633C235.426 26.8574 234.852 27.0536 234.403 27.2219C233.197 27.6986 232.3 28.1893 231.711 28.694C231.122 29.1988 230.73 29.6895 230.533 30.1662C230.365 30.6429 230.281 31.0916 230.281 31.5122ZM254.207 37.4008C253.029 37.4008 251.95 37.2606 250.968 36.9802C249.987 36.7278 248.977 36.3352 247.94 35.8025L247.772 31.1757H250.085L250.884 34.835C251.866 35.2837 253.001 35.508 254.291 35.508C255.89 35.508 257.067 35.2136 257.824 34.6247C258.61 34.0359 259.002 33.2647 259.002 32.3113C259.002 31.414 258.68 30.699 258.035 30.1662C257.39 29.6054 256.408 29.1006 255.09 28.652L253.156 27.9369C251.613 27.3761 250.379 26.647 249.454 25.7497C248.529 24.8524 248.066 23.6887 248.066 22.2586C248.066 21.2211 248.346 20.2537 248.907 19.3564C249.468 18.4591 250.295 17.73 251.389 17.1692C252.483 16.6083 253.814 16.3279 255.385 16.3279C256.534 16.3279 257.572 16.4822 258.497 16.7906C259.451 17.071 260.376 17.4916 261.273 18.0525L261.105 22.3427H258.918L258.245 18.9778C257.292 18.5011 256.324 18.2628 255.343 18.2628C254.053 18.2628 253.071 18.5292 252.398 19.0619C251.753 19.5667 251.431 20.2537 251.431 21.123C251.431 22.0483 251.711 22.7493 252.272 23.226C252.861 23.7027 253.871 24.2075 255.301 24.7403L256.605 25.2029C258.708 25.9881 260.194 26.8854 261.063 27.8949C261.96 28.9044 262.409 30.0681 262.409 31.386C262.409 32.4516 262.101 33.447 261.484 34.3724C260.867 35.2697 259.955 35.9988 258.75 36.5596C257.544 37.1204 256.03 37.4008 254.207 37.4008Z" fill="#1D3AA0"/>
<path d="M268.393 1.80264V47.8701" stroke="#2952E1" stroke-width="2.00293"/>
<path d="M264.387 48.8716C266.761 47.0912 270.025 47.0912 272.399 48.8716" stroke="#2952E1" stroke-width="2.00293"/>
<path d="M264.387 0.801177C266.761 2.58156 270.025 2.58156 272.399 0.801177" stroke="#2952E1" stroke-width="2.00293"/>
</svg>
